<svg xmlns="http://www.w3.org/2000/svg" viewBox="0 0 96 96" role="img" aria-label="Mula de Expedição">
  <defs>
    <linearGradient id="hide" x1="0" y1="0" x2="1" y2="1">
      <stop stop-color="#a9794d"/>
      <stop offset="1" stop-color="#5a3926"/>
    </linearGradient>
    <linearGradient id="pack" x1="0" y1="0" x2="0" y2="1">
      <stop stop-color="#71895b"/>
      <stop offset="1" stop-color="#35482f"/>
    </linearGradient>
  </defs>
  <circle cx="48" cy="48" r="45" fill="#172229" stroke="#d1a75d" stroke-width="3"/>
  <path d="M25 49c0-12 9-22 22-22h10c10 0 17 7 17 16v13c0 8-7 14-15 14H40c-8 0-15-5-15-13z" fill="url(#hide)" stroke="#e0bc78" stroke-width="2"/>
  <path d="M61 33c4-10 7-17 11-20 2 8 2 15-1 22M65 34c8-7 13-10 18-10-2 8-6 13-13 17" fill="#815738" stroke="#e0bc78" stroke-width="2" stroke-linejoin="round"/>
  <path d="M66 35c10 0 17 7 17 15 0 8-6 14-15 14-7 0-12-5-12-12 0-8 3-14 10-17z" fill="url(#hide)" stroke="#e0bc78" stroke-width="2"/>
  <circle cx="74" cy="47" r="2.2" fill="#8fe6ff"/>
  <path d="M28 42h37" stroke="#d1a75d" stroke-width="4" stroke-linecap="round"/>
  <rect x="19" y="38" width="20" height="25" rx="4" fill="url(#pack)" stroke="#d1a75d" stroke-width="2"/>
  <rect x="45" y="38" width="20" height="25" rx="4" fill="url(#pack)" stroke="#d1a75d" stroke-width="2"/>
  <path d="M33 68v14M56 68v14M28 82h10M51 82h10" stroke="#6d4932" stroke-width="6" stroke-linecap="round"/>
  <path d="M72 59c7 1 11-1 14-5" fill="none" stroke="#d1a75d" stroke-width="3" stroke-linecap="round"/>
</svg>
