{
  "accessors": [
    {
      "name": "Rock_1_Cube.001-Mesh_0_positions",
      "componentType": 5126,
      "count": 305,
      "min": [
        -0.45172300934791565,
        -0.10538499802350998,
        -0.2864289879798889
      ],
      "max": [
        0.25895199179649353,
        0.9771029949188232,
        0.6009659767150879
      ],
      "type": "VEC3",
      "bufferView": 0,
      "byteOffset": 0
    },
    {
      "name": "Rock_1_Cube.001-Mesh_0_normals",
      "componentType": 5126,
      "count": 305,
      "min": [
        -0.9910553693771362,
        -0.9948604106903076,
        -0.9861509203910828
      ],
      "max": [
        0.9971603155136108,
        0.9470278024673462,
        0.9955247640609741
      ],
      "type": "VEC3",
      "bufferView": 1,
      "byteOffset": 0
    },
    {
      "name": "Rock_1_Cube.001-Mesh_0_texcoords",
      "componentType": 5126,
      "count": 305,
      "min": [
        0.1822970062494278,
        0.07124800235033035
      ],
      "max": [
        0.8000580072402954,
        0.6472629904747009
      ],
      "type": "VEC2",
      "bufferView": 2,
      "byteOffset": 0
    },
    {
      "name": "Rock_1_Cube.001-Mesh_0_indices",
      "componentType": 5123,
      "count": 684,
      "min": [
        0
      ],
      "max": [
        304
      ],
      "type": "SCALAR",
      "bufferView": 3,
      "byteOffset": 0
    }
  ],
  "asset": {
    "generator": "obj2gltf",
    "version": "2.0"
  },
  "buffers": [
    {
      "name": "Rock_1",
      "byteLength": 11128,
      "uri": "data:application/octet-stream;base64,"
    }
  ],
  "bufferViews": [
    {
      "name": "bufferView_0",
      "buffer": 0,
      "byteLength": 3660,
      "byteOffset": 0,
      "byteStride": 12,
      "target": 34962
    },
    {
      "name": "bufferView_1",
      "buffer": 0,
      "byteLength": 3660,
      "byteOffset": 3660,
      "byteStride": 12,
      "target": 34962
    },
    {
      "name": "bufferView_2",
      "buffer": 0,
      "byteLength": 2440,
      "byteOffset": 7320,
      "byteStride": 8,
      "target": 34962
    },
    {
      "name": "bufferView_3",
      "buffer": 0,
      "byteLength": 1368,
      "byteOffset": 9760,
      "target": 34963
    }
  ],
  "materials": [
    {
      "name": "Rock",
      "pbrMetallicRoughness": {
        "baseColorFactor": [
          0.64,
          0.64,
          0.64,
          1
        ],
        "metallicFactor": 0,
        "roughnessFactor": 0.903921569
      },
      "emissiveFactor": [
        0,
        0,
        0
      ],
      "alphaMode": "OPAQUE",
      "doubleSided": false
    }
  ],
  "meshes": [
    {
      "name": "Rock_1_Cube.001-Mesh",
      "primitives": [
        {
          "attributes": {
            "POSITION": 0,
            "NORMAL": 1,
            "TEXCOORD_0": 2
          },
          "indices": 3,
          "material": 0,
          "mode": 4
        }
      ]
    }
  ],
  "nodes": [
    {
      "name": "Rock_1_Cube.001",
      "mesh": 0
    }
  ],
  "scene": 0,
  "scenes": [
    {
      "nodes": [
        0
      ]
    }
  ]
}
